<?xml version="1.0" encoding="utf-8"?>
<!-- Generator: Adobe Illustrator 16.0.0, SVG Export Plug-In . SVG Version: 6.00 Build 0)  -->
<!DOCTYPE svg PUBLIC "-//W3C//DTD SVG 1.1//EN" "http://www.w3.org/Graphics/SVG/1.1/DTD/svg11.dtd">
<svg version="1.1" id="Layer_1" xmlns="http://www.w3.org/2000/svg" xmlns:xlink="http://www.w3.org/1999/xlink" x="0px" y="0px"
	 width="26px" height="26px" viewBox="0 0 26 26" enable-background="new 0 0 26 26" xml:space="preserve">
<g>
	<path d="M24.07,13.095l-9.127-6.73c-0.414-0.308-0.982-0.306-1.394,0.003l-9.012,6.731c-0.52,0.387-0.625,1.121-0.239,1.639
		c0.387,0.517,1.121,0.623,1.639,0.236l1.21-0.902v9.09c0,0.648,0.524,1.172,1.17,1.172H20.18c0.646,0,1.172-0.523,1.172-1.172V14
		l1.328,0.979c0.209,0.154,0.453,0.229,0.695,0.229c0.359,0,0.713-0.164,0.941-0.475C24.703,14.212,24.59,13.479,24.07,13.095z
		 M19.012,12.669v9.323H9.489v-9.323c0-0.109-0.02-0.211-0.047-0.31l4.81-3.594l4.818,3.554
		C19.033,12.428,19.012,12.546,19.012,12.669z"/>
	<path d="M22.496,5.842c0.324,0,0.588-0.264,0.588-0.587V3.058c0-0.323-0.264-0.586-0.588-0.586H6.115
		c-0.324,0-0.586,0.263-0.586,0.586v2.197c0,0.323,0.262,0.587,0.586,0.587c0.323,0,0.585-0.264,0.585-0.587V3.644h1.51v0.708
		c0,0.216,0.176,0.39,0.389,0.39c0.217,0,0.394-0.174,0.394-0.39V3.644h1.478v0.708c0,0.216,0.176,0.39,0.389,0.39
		c0.218,0,0.392-0.174,0.392-0.39V3.644h1.479v0.708c0,0.216,0.175,0.39,0.391,0.39s0.391-0.174,0.391-0.39V3.644h1.477v0.708
		c0,0.216,0.178,0.39,0.391,0.39c0.217,0,0.391-0.174,0.391-0.39V3.644h1.479v0.708c0,0.216,0.176,0.39,0.393,0.39
		c0.213,0,0.391-0.174,0.391-0.39V3.644h1.479v0.708c0,0.216,0.172,0.39,0.389,0.39c0.215,0,0.391-0.174,0.391-0.39V3.644h1.625
		v1.611C21.912,5.578,22.176,5.842,22.496,5.842z"/>
	<path d="M4.513,23.75c0-0.324-0.263-0.586-0.586-0.586H2.315v-1.51h0.709c0.216,0,0.39-0.174,0.39-0.389
		c0-0.217-0.174-0.393-0.39-0.393H2.315v-1.477h0.709c0.216,0,0.39-0.176,0.39-0.391c0-0.217-0.174-0.393-0.39-0.393H2.315v-1.477
		h0.709c0.216,0,0.39-0.174,0.39-0.391s-0.174-0.391-0.39-0.391H2.315v-1.478h0.709c0.216,0,0.39-0.175,0.39-0.392
		c0-0.215-0.174-0.389-0.39-0.389H2.315v-1.479h0.709c0.216,0,0.39-0.174,0.39-0.39c0-0.217-0.174-0.391-0.39-0.391H2.315V10.36
		h0.709c0.216,0,0.39-0.175,0.39-0.391s-0.174-0.39-0.39-0.39H2.315V7.954h1.612c0.323,0,0.586-0.264,0.586-0.587
		c0-0.322-0.263-0.586-0.586-0.586H1.729c-0.324,0-0.586,0.264-0.586,0.586V23.75c0,0.324,0.262,0.586,0.586,0.586h2.198
		C4.25,24.336,4.513,24.072,4.513,23.75z"/>
</g>
</svg>
