<?xml version="1.0" encoding="utf-8"?>
<!-- Generator: Adobe Illustrator 16.0.0, SVG Export Plug-In . SVG Version: 6.00 Build 0)  -->
<!DOCTYPE svg PUBLIC "-//W3C//DTD SVG 1.1//EN" "http://www.w3.org/Graphics/SVG/1.1/DTD/svg11.dtd">
<svg version="1.1" id="Layer_1" xmlns="http://www.w3.org/2000/svg" xmlns:xlink="http://www.w3.org/1999/xlink" x="0px" y="0px"
	 width="26px" height="27.468px" viewBox="0 0 26 27.468" enable-background="new 0 0 26 27.468" xml:space="preserve">
<g>
	<path d="M23.435,26.314c0.688,0,1.247-0.561,1.247-1.248V9.597c0-0.687-0.561-1.247-1.247-1.247h-2.429
		c-0.061-0.195-0.163-0.378-0.313-0.526l-6.75-6.752c-0.498-0.499-1.309-0.499-1.808,0l-6.75,6.75
		c-0.15,0.15-0.253,0.333-0.313,0.528H2.728c-0.687,0-1.246,0.559-1.246,1.246v15.471c0,0.688,0.561,1.246,1.246,1.246h20.707
		V26.314z M13.039,2.336l6.015,6.014H7.025L13.039,2.336z M3.015,9.883h20.135v14.896H3.015V9.883z"/>
	<path d="M13.598,13.581h-0.454c-0.4,0-0.784,0.306-0.874,0.695l-0.766,3.326l-0.689-3.319c-0.084-0.395-0.462-0.703-0.864-0.703
		H9.442c-0.403,0-0.78,0.311-0.86,0.707l-0.634,3.237l-0.75-3.248c-0.091-0.39-0.475-0.696-0.875-0.696H5.808
		c-0.215,0-0.405,0.089-0.524,0.245c-0.119,0.155-0.152,0.363-0.094,0.572l1.687,5.95c0.11,0.379,0.502,0.678,0.897,0.678h0.322
		c0.403,0,0.786-0.311,0.866-0.705l0.727-3.525l0.729,3.525c0.08,0.395,0.458,0.705,0.865,0.705h0.363
		c0.396,0,0.789-0.299,0.896-0.678l1.673-5.95c0.058-0.208,0.023-0.417-0.096-0.572C14.003,13.668,13.813,13.581,13.598,13.581z"/>
	<path d="M17.83,15.195c0.433,0,0.745,0.119,0.953,0.363c0.063,0.074,0.122,0.174,0.178,0.293c0.139,0.316,0.512,0.547,0.884,0.547
		h0.426c0.229,0,0.441-0.104,0.572-0.275c0.118-0.158,0.154-0.359,0.096-0.553c-0.083-0.289-0.227-0.578-0.421-0.865
		c-0.583-0.835-1.505-1.256-2.742-1.256c-0.931,0-1.708,0.312-2.313,0.929c-0.686,0.706-1.037,1.706-1.037,2.981
		c0,1.178,0.307,2.123,0.912,2.811c0.612,0.693,1.459,1.045,2.518,1.045c0.859,0,1.579-0.26,2.135-0.777
		c0.426-0.395,0.73-0.883,0.906-1.459c0.062-0.197,0.029-0.402-0.089-0.563c-0.123-0.17-0.325-0.266-0.551-0.266H19.84
		c-0.374,0-0.747,0.244-0.888,0.578c-0.055,0.133-0.115,0.24-0.183,0.324c-0.213,0.27-0.517,0.4-0.938,0.4
		c-0.405,0-0.732-0.158-0.997-0.486c-0.275-0.34-0.415-0.873-0.415-1.586c0-0.723,0.135-1.277,0.4-1.656
		C17.068,15.369,17.4,15.195,17.83,15.195z"/>
</g>
</svg>
