<?xml version="1.0" encoding="utf-8"?>
<!-- Generator: Adobe Illustrator 16.0.0, SVG Export Plug-In . SVG Version: 6.00 Build 0)  -->
<!DOCTYPE svg PUBLIC "-//W3C//DTD SVG 1.1//EN" "http://www.w3.org/Graphics/SVG/1.1/DTD/svg11.dtd">
<svg version="1.1" id="Layer_1" xmlns="http://www.w3.org/2000/svg" xmlns:xlink="http://www.w3.org/1999/xlink" x="0px" y="0px"
	 width="26px" height="22.262px" viewBox="0 0 26 22.262" enable-background="new 0 0 26 22.262" xml:space="preserve">
<path d="M24.037,3.473H2.275H2.086H1.629H1.313v15.159H25V3.473h-0.818H24.037z M23.09,4.42l-9.152,9.151
	c-0.416,0.416-1.145,0.416-1.563,0L3.223,4.42H23.09z M2.26,4.798l6.152,6.15L2.26,17.102V4.798z M3.018,17.686l6.066-6.068
	l2.621,2.625c0.387,0.385,0.904,0.6,1.451,0.6c0.549,0,1.064-0.215,1.453-0.6l2.621-2.625l6.066,6.068H3.018z M24.053,17.102
	L17.9,10.949l6.152-6.153V17.102z"/>
</svg>
