<?xml version="1.0" encoding="utf-8"?>
<!-- Generator: Adobe Illustrator 16.0.0, SVG Export Plug-In . SVG Version: 6.00 Build 0)  -->
<!DOCTYPE svg PUBLIC "-//W3C//DTD SVG 1.1//EN" "http://www.w3.org/Graphics/SVG/1.1/DTD/svg11.dtd">
<svg version="1.1" id="Layer_1" xmlns="http://www.w3.org/2000/svg" xmlns:xlink="http://www.w3.org/1999/xlink" x="0px" y="0px"
	 width="50px" height="50px" viewBox="0 0 50 50" enable-background="new 0 0 50 50" xml:space="preserve">
<path fill="#FFFFFF" d="M25.003,1C11.745,1,0.999,11.744,0.999,25c0,13.254,10.746,24,24.004,24c13.252,0,23.998-10.746,23.998-24
	C49.001,11.744,38.255,1,25.003,1z M31.427,25H27c0,7,0,15,0,15h-6c0,0,0-8,0-15h-3v-5h3v-3.713C21,13.834,22.213,10,27.336,10
	L32,10.018V15c0,0-2.911,0-3.456,0S27,15.432,27,16.6V20h4.972L31.427,25z"/>
</svg>
