<?xml version="1.0" encoding="utf-8"?>
<!-- Generator: Adobe Illustrator 16.0.0, SVG Export Plug-In . SVG Version: 6.00 Build 0)  -->
<!DOCTYPE svg PUBLIC "-//W3C//DTD SVG 1.1//EN" "http://www.w3.org/Graphics/SVG/1.1/DTD/svg11.dtd">
<svg version="1.1" id="Layer_1" xmlns="http://www.w3.org/2000/svg" xmlns:xlink="http://www.w3.org/1999/xlink" x="0px" y="0px"
	 width="26px" height="26px" viewBox="0 0 26 26" enable-background="new 0 0 26 26" xml:space="preserve">
<path fill-rule="evenodd" clip-rule="evenodd" d="M13.001,25.508c-6.908,0-12.508-5.6-12.508-12.509
	c0-6.907,5.6-12.507,12.508-12.507c6.907,0,12.507,5.6,12.507,12.507C25.508,19.908,19.908,25.508,13.001,25.508 M13.001,2.837
	c-5.612,0-10.163,4.55-10.163,10.162c0,5.614,4.551,10.163,10.163,10.163s10.162-4.549,10.162-10.163
	C23.163,7.387,18.613,2.837,13.001,2.837 M17.3,18.473c-0.323,0-0.616-0.133-0.829-0.344l-3.47-3.471L9.53,18.129
	c-0.212,0.211-0.506,0.344-0.829,0.344c-0.648,0-1.173-0.525-1.173-1.174c0-0.322,0.132-0.617,0.344-0.828l3.47-3.472l-3.47-3.47
	C7.66,9.317,7.528,9.023,7.528,8.7c0-0.647,0.524-1.172,1.173-1.172c0.323,0,0.617,0.131,0.829,0.343l3.471,3.471l3.47-3.471
	c0.213-0.212,0.506-0.343,0.829-0.343c0.647,0,1.173,0.525,1.173,1.172c0,0.324-0.132,0.617-0.344,0.83l-3.471,3.47l3.471,3.472
	c0.212,0.211,0.344,0.506,0.344,0.828C18.473,17.947,17.947,18.473,17.3,18.473"/>
</svg>
