<?xml version="1.0" encoding="utf-8"?>
<!-- Generator: Adobe Illustrator 16.0.0, SVG Export Plug-In . SVG Version: 6.00 Build 0)  -->
<!DOCTYPE svg PUBLIC "-//W3C//DTD SVG 1.1//EN" "http://www.w3.org/Graphics/SVG/1.1/DTD/svg11.dtd">
<svg version="1.1" id="Layer_1" xmlns="http://www.w3.org/2000/svg" xmlns:xlink="http://www.w3.org/1999/xlink" x="0px" y="0px"
	 width="18px" height="18px" viewBox="0 0 18 18" enable-background="new 0 0 18 18" xml:space="preserve">
<g>
	<path d="M6.357,0.979H2.354c-0.735,0-1.334,0.598-1.334,1.334v4.004c0,0.736,0.599,1.334,1.334,1.334h4.004
		c0.738,0,1.336-0.598,1.336-1.334V2.313C7.693,1.577,7.096,0.979,6.357,0.979z"/>
	<path d="M15.702,0.979h-4.004c-0.737,0-1.335,0.598-1.335,1.334v4.004c0,0.736,0.598,1.334,1.335,1.334h4.004
		c0.736,0,1.335-0.598,1.335-1.334V2.313C17.037,1.577,16.438,0.979,15.702,0.979z"/>
	<path d="M6.357,10.322H2.354c-0.735,0-1.334,0.6-1.334,1.334v4.006c0,0.734,0.599,1.333,1.334,1.333h4.004
		c0.738,0,1.336-0.599,1.336-1.333v-4.006C7.693,10.922,7.096,10.322,6.357,10.322z"/>
	<path d="M15.702,10.322h-4.004c-0.737,0-1.335,0.6-1.335,1.334v4.006c0,0.734,0.598,1.333,1.335,1.333h4.004
		c0.736,0,1.335-0.599,1.335-1.333v-4.006C17.037,10.922,16.438,10.322,15.702,10.322z"/>
</g>
</svg>
