<?xml version="1.0" encoding="utf-8"?>
<!-- Generator: Adobe Illustrator 16.0.0, SVG Export Plug-In . SVG Version: 6.00 Build 0)  -->
<!DOCTYPE svg PUBLIC "-//W3C//DTD SVG 1.1//EN" "http://www.w3.org/Graphics/SVG/1.1/DTD/svg11.dtd">
<svg version="1.1" id="Layer_1" xmlns="http://www.w3.org/2000/svg" xmlns:xlink="http://www.w3.org/1999/xlink" x="0px" y="0px"
	 width="26px" height="26px" viewBox="0 0 26 26" enable-background="new 0 0 26 26" xml:space="preserve">
<g>
	<path d="M7.101,3.241H17.96v2.714h1.357V3.241c0-0.749-0.606-1.357-1.357-1.357H7.101c-0.749,0-1.357,0.608-1.357,1.357v2.714
		h1.357V3.241z"/>
	<path d="M22.031,7.313H3.029c-0.749,0-1.357,0.608-1.357,1.358v6.786c0,0.751,0.608,1.357,1.357,1.357h2.715v5.43
		c0,0.75,0.608,1.357,1.357,1.357H17.96c0.751,0,1.357-0.607,1.357-1.357v-5.43h2.714c0.751,0,1.358-0.606,1.358-1.357V8.671
		C23.39,7.921,22.782,7.313,22.031,7.313z M17.96,22.244H7.101v-9.502H17.96V22.244z M20.675,11.386
		c-0.75,0-1.357-0.607-1.357-1.357s0.607-1.357,1.357-1.357s1.356,0.607,1.356,1.357S21.425,11.386,20.675,11.386z"/>
	<rect x="8.458" y="14.1" width="5.43" height="1.357"/>
	<rect x="8.458" y="16.814" width="8.145" height="1.357"/>
	<rect x="8.458" y="19.529" width="8.145" height="1.357"/>
</g>
</svg>
