<?xml version="1.0" encoding="utf-8"?>
<!-- Generator: Adobe Illustrator 16.0.0, SVG Export Plug-In . SVG Version: 6.00 Build 0)  -->
<!DOCTYPE svg PUBLIC "-//W3C//DTD SVG 1.1//EN" "http://www.w3.org/Graphics/SVG/1.1/DTD/svg11.dtd">
<svg version="1.1" id="Layer_1" xmlns="http://www.w3.org/2000/svg" xmlns:xlink="http://www.w3.org/1999/xlink" x="0px" y="0px"
	 width="20.765px" height="18px" viewBox="0 0 20.765 18" enable-background="new 0 0 20.765 18" xml:space="preserve">
<g>
	<path d="M2.22,14.189c-0.721,0-1.367,0.607-1.367,1.329c0,0.721,0.646,1.367,1.367,1.367c0.722,0,1.33-0.646,1.33-1.367
		C3.55,14.797,2.942,14.189,2.22,14.189z"/>
	<path d="M2.22,7.658c-0.721,0-1.367,0.608-1.367,1.33c0,0.721,0.646,1.329,1.367,1.329c0.722,0,1.33-0.608,1.33-1.329
		C3.55,8.266,2.942,7.658,2.22,7.658z"/>
	<path d="M7.082,3.669h11.507c0.682,0,1.252-0.53,1.252-1.215c0-0.683-0.57-1.251-1.252-1.251H7.082
		c-0.684,0-1.254,0.568-1.254,1.251C5.828,3.139,6.398,3.669,7.082,3.669z"/>
	<path d="M2.22,1.088c-0.721,0-1.367,0.645-1.367,1.366c0,0.723,0.646,1.33,1.367,1.33c0.722,0,1.33-0.607,1.33-1.33
		C3.55,1.733,2.942,1.088,2.22,1.088z"/>
	<path d="M18.588,7.734H7.082c-0.684,0-1.254,0.57-1.254,1.253c0,0.683,0.57,1.253,1.254,1.253h11.507
		c0.682,0,1.252-0.57,1.252-1.253C19.84,8.304,19.27,7.734,18.588,7.734z"/>
	<path d="M18.588,14.266H7.082c-0.684,0-1.254,0.57-1.254,1.253s0.57,1.253,1.254,1.253h11.507c0.682,0,1.252-0.57,1.252-1.253
		S19.27,14.266,18.588,14.266z"/>
</g>
</svg>
