<?xml version="1.0" encoding="utf-8"?>
<!-- Generator: Adobe Illustrator 16.0.0, SVG Export Plug-In . SVG Version: 6.00 Build 0)  -->
<!DOCTYPE svg PUBLIC "-//W3C//DTD SVG 1.1//EN" "http://www.w3.org/Graphics/SVG/1.1/DTD/svg11.dtd">
<svg version="1.1" id="Layer_1" xmlns="http://www.w3.org/2000/svg" xmlns:xlink="http://www.w3.org/1999/xlink" x="0px" y="0px"
	 width="27px" height="26.625px" viewBox="0 0 27 26.625" enable-background="new 0 0 27 26.625" xml:space="preserve">
<path d="M25.22,20.848l-4.484-4.484c-0.395-0.395-1.108-0.355-1.824,0.016l-1.956-1.955c2.549-3.33,2.308-8.109-0.739-11.156
	c-3.316-3.316-8.693-3.316-12.012,0c-3.315,3.318-3.315,8.695,0,12.012c3.048,3.047,7.829,3.287,11.158,0.738l1.955,1.955
	c-0.372,0.717-0.41,1.43-0.018,1.824l4.484,4.486c0.567,0.564,1.798,0.254,2.744-0.695C25.476,22.643,25.786,21.414,25.22,20.848z
	 M5.468,14.018c-2.618-2.621-2.618-6.869,0-9.486c2.621-2.621,6.864-2.619,9.486,0c2.617,2.617,2.617,6.863,0,9.486
	C12.332,16.635,8.085,16.635,5.468,14.018z"/>
</svg>
