<?xml version="1.0" encoding="utf-8"?>
<!-- Generator: Adobe Illustrator 16.0.0, SVG Export Plug-In . SVG Version: 6.00 Build 0)  -->
<!DOCTYPE svg PUBLIC "-//W3C//DTD SVG 1.1//EN" "http://www.w3.org/Graphics/SVG/1.1/DTD/svg11.dtd">
<svg version="1.1" id="Layer_1" xmlns="http://www.w3.org/2000/svg" xmlns:xlink="http://www.w3.org/1999/xlink" x="0px" y="0px"
	 width="43.75px" height="45px" viewBox="0 0 43.75 45" enable-background="new 0 0 43.75 45" xml:space="preserve">
<g>
	<path d="M39.537,37.401c0,1.104-0.467,2.099-1.569,2.099H25.15l-3.162,3.329L18.826,39.5H6.009c-1.104,0-2.473-0.994-2.473-2.099
		V4.778c0-1.104,1.369-2.278,2.473-2.278h31.958c1.103,0,1.569,1.175,1.569,2.278V37.401z"/>
	<g>
		<path fill="#FFFFFF" d="M31.842,20.843l-9.827-8.518c-0.246-0.214-0.612-0.214-0.858,0l-3.504,3.034v-1.229
			c0-0.724-0.588-1.311-1.311-1.311s-1.311,0.587-1.311,1.311v3.499l-3.705,3.213c-0.273,0.236-0.304,0.65-0.065,0.925
			c0.237,0.272,0.651,0.302,0.925,0.065l9.397-8.146l9.399,8.146c0.123,0.107,0.276,0.16,0.43,0.16c0.182,0,0.363-0.077,0.494-0.226
			C32.145,21.493,32.114,21.08,31.842,20.843z"/>
		<path fill="#FFFFFF" d="M22.415,17.048c-0.24-0.197-0.535-0.297-0.831-0.297c-0.295,0-0.59,0.1-0.83,0.297l-6.552,5.372
			c-0.305,0.248-0.479,0.619-0.479,1.014v6.421c0,0.723,0.587,1.311,1.31,1.311h3.932v-6.552h5.242v6.552h3.932
			c0.722,0,1.311-0.588,1.311-1.311v-6.421c0-0.395-0.178-0.766-0.481-1.013L22.415,17.048z"/>
	</g>
</g>
</svg>
