<?xml version="1.0" encoding="utf-8"?>
<!-- Generator: Adobe Illustrator 16.0.0, SVG Export Plug-In . SVG Version: 6.00 Build 0)  -->
<!DOCTYPE svg PUBLIC "-//W3C//DTD SVG 1.1//EN" "http://www.w3.org/Graphics/SVG/1.1/DTD/svg11.dtd">
<svg version="1.1" id="Layer_1" xmlns="http://www.w3.org/2000/svg" xmlns:xlink="http://www.w3.org/1999/xlink" x="0px" y="0px"
	 width="29.803px" height="26px" viewBox="0 0 29.803 26" enable-background="new 0 0 29.803 26" xml:space="preserve">
<path d="M28.052,12.069h-1.357c-0.291,0-0.525,0.237-0.525,0.524v1.137h-0.895V9.093c0-0.288-0.237-0.522-0.527-0.522H10.578
	c-0.288,0-0.524,0.234-0.524,0.522v4.637H7.725c1.128-0.293,1.962-1.318,1.962-2.536c0-1.449-1.173-2.623-2.622-2.623
	c-1.446,0-2.624,1.174-2.624,2.623c0,1.218,0.837,2.243,1.963,2.536H3.647V5.596c0-0.291-0.234-0.525-0.524-0.525H1.768
	c-0.289,0-0.525,0.234-0.525,0.525v13.996c0,0.289,0.236,0.523,0.525,0.523h1.355c0.29,0,0.524-0.234,0.524-0.523v-2.1h22.521v2.1
	c0,0.289,0.234,0.523,0.525,0.523h1.357c0.288,0,0.524-0.234,0.524-0.523v-6.999C28.576,12.306,28.34,12.069,28.052,12.069z"/>
</svg>
