<?xml version="1.0" encoding="utf-8"?>
<!-- Generator: Adobe Illustrator 16.0.0, SVG Export Plug-In . SVG Version: 6.00 Build 0)  -->
<!DOCTYPE svg PUBLIC "-//W3C//DTD SVG 1.1//EN" "http://www.w3.org/Graphics/SVG/1.1/DTD/svg11.dtd">
<svg version="1.1" id="Layer_1" xmlns="http://www.w3.org/2000/svg" xmlns:xlink="http://www.w3.org/1999/xlink" x="0px" y="0px"
	 width="26px" height="26px" viewBox="0 0 26 26" enable-background="new 0 0 26 26" xml:space="preserve">
<g>
	<path d="M22.826,20.229L14.211,4.087c-0.215-0.404-0.635-0.657-1.094-0.657h-0.001c-0.458,0-0.878,0.252-1.094,0.655L3.368,20.228
		c-0.206,0.386-0.194,0.851,0.028,1.224c0.225,0.375,0.63,0.604,1.066,0.604H21.73c0.436,0,0.84-0.229,1.064-0.604
		C23.021,21.078,23.031,20.613,22.826,20.229z M13.116,19.572c-0.685,0-1.242-0.557-1.242-1.242c0-0.685,0.557-1.241,1.242-1.241
		c0.684,0,1.241,0.557,1.241,1.241C14.357,19.016,13.8,19.572,13.116,19.572z M14.357,14.625c0,0.687-0.558,1.241-1.241,1.241
		c-0.685,0-1.242-0.555-1.242-1.241V9.658c0-0.686,0.557-1.242,1.242-1.242c0.684,0,1.241,0.557,1.241,1.242V14.625z"/>
</g>
</svg>
