<?xml version="1.0" encoding="utf-8"?>
<!-- Generator: Adobe Illustrator 16.0.0, SVG Export Plug-In . SVG Version: 6.00 Build 0)  -->
<!DOCTYPE svg PUBLIC "-//W3C//DTD SVG 1.1//EN" "http://www.w3.org/Graphics/SVG/1.1/DTD/svg11.dtd">
<svg version="1.1" id="Layer_1" xmlns="http://www.w3.org/2000/svg" xmlns:xlink="http://www.w3.org/1999/xlink" x="0px" y="0px"
	 width="26px" height="26px" viewBox="0 0 26 26" enable-background="new 0 0 26 26" xml:space="preserve">
<path d="M22.972,19.306c0.044,0.335-0.058,0.626-0.306,0.874l-2.906,2.886c-0.132,0.145-0.303,0.27-0.514,0.371
	c-0.212,0.102-0.419,0.167-0.623,0.197c-0.015,0-0.059,0.003-0.132,0.011c-0.072,0.007-0.167,0.011-0.283,0.011
	c-0.277,0-0.726-0.048-1.345-0.142c-0.619-0.096-1.377-0.328-2.272-0.7c-0.896-0.371-1.913-0.929-3.049-1.672
	c-1.137-0.743-2.346-1.764-3.628-3.061c-1.021-1.005-1.865-1.966-2.536-2.885c-0.67-0.917-1.209-1.767-1.617-2.546
	s-0.714-1.485-0.918-2.12c-0.204-0.634-0.342-1.18-0.415-1.639C2.355,8.433,2.326,8.072,2.341,7.81s0.021-0.408,0.021-0.437
	C2.392,7.169,2.457,6.961,2.56,6.75c0.102-0.212,0.225-0.383,0.371-0.514l2.906-2.907c0.204-0.204,0.438-0.306,0.7-0.306
	c0.188,0,0.356,0.055,0.502,0.164C7.186,3.296,7.31,3.432,7.411,3.591l2.338,4.438c0.132,0.232,0.168,0.488,0.109,0.765
	c-0.058,0.277-0.182,0.511-0.371,0.7l-1.071,1.07c-0.029,0.029-0.055,0.076-0.076,0.143c-0.022,0.065-0.033,0.119-0.033,0.164
	c0.059,0.305,0.189,0.655,0.394,1.049c0.175,0.35,0.444,0.775,0.81,1.277c0.363,0.503,0.881,1.083,1.551,1.739
	c0.656,0.669,1.238,1.19,1.749,1.562c0.51,0.372,0.936,0.646,1.278,0.819c0.343,0.176,0.604,0.281,0.787,0.316l0.272,0.056
	c0.029,0,0.077-0.011,0.143-0.033s0.112-0.047,0.142-0.076l1.246-1.268c0.263-0.233,0.568-0.35,0.918-0.35
	c0.248,0,0.444,0.043,0.59,0.131h0.022l4.218,2.492C22.732,18.773,22.914,19.015,22.972,19.306z"/>
</svg>
