<?xml version="1.0" encoding="utf-8"?>
<!-- Generator: Adobe Illustrator 16.0.0, SVG Export Plug-In . SVG Version: 6.00 Build 0)  -->
<!DOCTYPE svg PUBLIC "-//W3C//DTD SVG 1.1//EN" "http://www.w3.org/Graphics/SVG/1.1/DTD/svg11.dtd">
<svg version="1.1" id="Layer_1" xmlns="http://www.w3.org/2000/svg" xmlns:xlink="http://www.w3.org/1999/xlink" x="0px" y="0px"
	 width="26px" height="26px" viewBox="0 0 26 26" enable-background="new 0 0 26 26" xml:space="preserve">
<g id="_x35__1_">
	<g>
		<path d="M14.953,10.404h-3.105V7.294c0-0.43-0.348-0.778-0.776-0.778c-0.429,0-0.776,0.348-0.776,0.778v3.109H7.192
			c-0.429,0-0.776,0.141-0.776,0.57c0,0.43,0.347,0.985,0.776,0.985h3.104v3.108c0,0.431,0.347,0.778,0.775,0.778
			c0.43,0,0.777-0.348,0.777-0.778v-3.108h3.104c0.428,0,0.775-0.348,0.775-0.778C15.729,10.752,15.381,10.404,14.953,10.404z
			 M25.182,24.264l-6.415-6.313c1.68-1.825,2.713-4.24,2.713-6.897c0-5.684-4.682-10.29-10.457-10.29
			c-5.774,0-10.456,4.606-10.456,10.29c0,5.683,4.682,10.29,10.456,10.29c2.495,0,4.784-0.863,6.581-2.298l6.441,6.339
			c0.314,0.311,0.825,0.311,1.137,0C25.498,25.075,25.498,24.574,25.182,24.264z M11.022,19.76c-4.886,0-8.848-3.897-8.848-8.707
			c0-4.809,3.961-8.707,8.848-8.707c4.886,0,8.848,3.898,8.848,8.707C19.87,15.862,15.908,19.76,11.022,19.76z"/>
	</g>
</g>
</svg>
