<?xml version="1.0" encoding="iso-8859-1"?>
<!-- Generator: Adobe Illustrator 17.0.0, SVG Export Plug-In . SVG Version: 6.00 Build 0)  -->
<!DOCTYPE svg PUBLIC "-//W3C//DTD SVG 1.1//EN" "http://www.w3.org/Graphics/SVG/1.1/DTD/svg11.dtd">
<svg version="1.1" id="Capa_1" xmlns="http://www.w3.org/2000/svg" xmlns:xlink="http://www.w3.org/1999/xlink" x="0px" y="0px"
	 width="64px" height="64px" viewBox="0 0 64 64" style="enable-background:new 0 0 64 64;" xml:space="preserve">
<path d="M57.5,55.167V18.75l-15-9v45.417h-2.75V34.322c0-2.209-1.791-4-4-4h-9.5V53h-1V22.351c-0.678-1.246-1.982-2.101-3.5-2.101
	H13c-2.209,0-4,1.791-4,4v30.917H5V59h56v-3.833H57.5z M51,19.833h4.5v4.5H51V19.833z M51,27.75h4.5v4.5H51V27.75z M51,35.833h4.5
	v4.5H51V35.833z M51,43.75h4.5v4.5H51V43.75z M44.5,19.833H49v4.5h-4.5V19.833z M44.5,27.75H49v4.5h-4.5V27.75z M44.5,35.833H49v4.5
	h-4.5V35.833z M44.5,43.75H49v4.5h-4.5V43.75z M18.333,24.739h4v4h-4V24.739z M18.333,31.906h4v4h-4V31.906z M18.333,39.167h4v4h-4
	V39.167z M18.333,46.333h4v4h-4V46.333z M11.666,24.739h4v4h-4V24.739z M11.666,31.906h4v4h-4V31.906z M11.666,39.167h4v4h-4V39.167
	z M11.666,46.333h4v4h-4V46.333z"/>
</svg>
