<?xml version="1.0" encoding="utf-8"?>
<!-- Generator: Adobe Illustrator 16.0.0, SVG Export Plug-In . SVG Version: 6.00 Build 0)  -->
<!DOCTYPE svg PUBLIC "-//W3C//DTD SVG 1.1//EN" "http://www.w3.org/Graphics/SVG/1.1/DTD/svg11.dtd">
<svg version="1.1" id="Layer_1" xmlns="http://www.w3.org/2000/svg" xmlns:xlink="http://www.w3.org/1999/xlink" x="0px" y="0px"
	 width="50px" height="50px" viewBox="0 0 50 50" enable-background="new 0 0 50 50" xml:space="preserve">
<path fill="#FFFFFF" d="M25.225,1C11.97,1,1.224,11.744,1.224,25c0,13.254,10.746,24,24.001,24s24.001-10.746,24.001-24
	C49.226,11.744,38.479,1,25.225,1z M37.154,18.881c0.013,0.264,0.017,0.531,0.017,0.797c0,8.135-6.189,17.512-17.512,17.512
	c-3.476,0-6.711-1.018-9.435-2.764c0.481,0.057,0.971,0.086,1.468,0.086c2.884,0,5.537-0.984,7.645-2.635
	c-2.693-0.051-4.966-1.83-5.75-4.275c0.376,0.072,0.762,0.111,1.158,0.111c0.562,0,0.891-0.076,1.407-0.217
	C13.336,26.93,11,24.441,11,21.461c0-0.025,0-0.053,0-0.078c1,0.461,1.994,0.738,3.003,0.77c-1.651-1.104-2.632-2.986-2.632-5.121
	c0-1.129,0.358-2.188,0.89-3.096c3.035,3.725,7.596,6.174,12.711,6.432c-0.104-0.451-0.145-0.92-0.145-1.402
	c0-3.4,2.763-6.156,6.161-6.156c1.771,0,3.375,0.748,4.496,1.945c1.402-0.277,2.721-0.789,3.91-1.496
	c-0.46,1.439-1.434,2.645-2.705,3.406c1.246-0.148,2.432-0.479,3.535-0.969C39.4,16.93,38.356,18.014,37.154,18.881z"/>
</svg>
