<?xml version="1.0" encoding="utf-8"?>
<!-- Generator: Adobe Illustrator 16.0.0, SVG Export Plug-In . SVG Version: 6.00 Build 0)  -->
<!DOCTYPE svg PUBLIC "-//W3C//DTD SVG 1.1//EN" "http://www.w3.org/Graphics/SVG/1.1/DTD/svg11.dtd">
<svg version="1.1" id="Layer_1" xmlns="http://www.w3.org/2000/svg" xmlns:xlink="http://www.w3.org/1999/xlink" x="0px" y="0px"
	 width="26px" height="26px" viewBox="0 0 26 26" enable-background="new 0 0 26 26" xml:space="preserve">
<path d="M22.841,0.636c-0.188,0-0.365,0.044-0.523,0.126L2.801,7.856c-0.004,0.002-0.01,0.007-0.018,0.009
	c-0.019,0.01-0.04,0.02-0.06,0.034C2.708,7.908,2.694,7.916,2.681,7.925C2.665,7.937,2.648,7.948,2.634,7.958
	C2.617,7.971,2.601,7.982,2.588,7.992C2.573,8.004,2.561,8.016,2.55,8.024C2.533,8.04,2.517,8.055,2.502,8.068
	C2.49,8.08,2.479,8.09,2.47,8.101C2.455,8.117,2.438,8.134,2.426,8.15c-0.011,0.012-0.02,0.024-0.029,0.037
	C2.384,8.204,2.37,8.221,2.358,8.239c-0.011,0.015-0.021,0.03-0.029,0.045C2.321,8.299,2.31,8.316,2.301,8.333
	C2.29,8.351,2.281,8.368,2.274,8.388C2.264,8.401,2.259,8.417,2.252,8.429C2.241,8.451,2.234,8.473,2.227,8.495
	C2.224,8.507,2.218,8.521,2.212,8.534c-0.007,0.021-0.015,0.042-0.02,0.064C2.188,8.614,2.186,8.63,2.182,8.646
	c-0.006,0.018-0.01,0.039-0.011,0.058C2.167,8.723,2.163,8.741,2.162,8.761C2.158,8.776,2.158,8.794,2.155,8.81
	c0,0.022-0.002,0.047-0.004,0.069c0,0.006,0,0.013,0,0.02v15.261c0,0.641,0.52,1.158,1.161,1.158h19.21
	c0.102,0.029,0.207,0.047,0.318,0.047c0.641,0,1.159-0.519,1.159-1.158V1.795C24,1.154,23.481,0.636,22.841,0.636z M8.074,23
	c0.339-0.151,0.579-0.491,0.579-0.892v-0.196c0.059,0.007,0.117,0.011,0.175,0.011h8.79c0.06,0,0.118-0.004,0.177-0.011v0.196
	c0,0.4,0.239,0.74,0.58,0.892H8.074z M17.42,15.709H8.828c-0.031,0-0.063,0.008-0.097,0.01v-0.722c0-1.004,0.829-2.218,1.855-2.218
	h4.976c1.029,0,1.857,1.214,1.857,2.218V15.709L17.42,15.709z M18.019,18.436c0,0.573-0.465,1.036-1.036,1.036
	c-0.57,0-1.034-0.465-1.034-1.036s0.464-1.036,1.034-1.036C17.554,17.399,18.019,17.864,18.019,18.436z M9.171,17.399
	c0.57,0,1.035,0.465,1.035,1.035c0,0.572-0.465,1.034-1.035,1.034c-0.573,0-1.036-0.462-1.036-1.034
	C8.135,17.864,8.598,17.399,9.171,17.399z M21.682,23H19.17c0.339-0.151,0.577-0.491,0.577-0.89V20c0-0.023-0.003-0.046-0.008-0.067
	c0.005-0.049,0.008-0.091,0.008-0.14v-1.952c0-0.447-0.137-0.862-0.371-1.205h0.282c0.256,0,0.463-0.208,0.463-0.465
	c0-0.254-0.209-0.462-0.463-0.462h-1.173v-0.714c0-1.549-1.249-3.282-2.922-3.282h-4.975c-1.672,0-2.922,1.733-2.922,3.282v0.714
	H6.496c-0.256,0-0.464,0.208-0.464,0.462c0,0.257,0.208,0.465,0.464,0.465h0.578C6.839,16.979,6.7,17.392,6.7,17.841v1.952
	c0,0.049,0.004,0.091,0.008,0.14C6.704,19.956,6.7,19.979,6.7,20v2.11c0,0.398,0.236,0.738,0.579,0.89H4.472V9.621L21.682,3.5V23z"
	/>
</svg>
