<?xml version="1.0" encoding="utf-8"?>
<!-- Generator: Adobe Illustrator 16.0.0, SVG Export Plug-In . SVG Version: 6.00 Build 0)  -->
<!DOCTYPE svg PUBLIC "-//W3C//DTD SVG 1.1//EN" "http://www.w3.org/Graphics/SVG/1.1/DTD/svg11.dtd">
<svg version="1.1" id="Layer_1" xmlns="http://www.w3.org/2000/svg" xmlns:xlink="http://www.w3.org/1999/xlink" x="0px" y="0px"
	 width="26px" height="26px" viewBox="0 0 26 26" enable-background="new 0 0 26 26" xml:space="preserve">
<path d="M16.635,21.107c-1.348,0-4.622-1.723-7.37-5.419C6.694,12.23,5.443,9.732,5.443,8.051c0-1.323,0.914-1.955,1.406-2.294
	L6.97,5.672c0.542-0.388,1.386-0.513,1.709-0.513c0.567,0,0.807,0.332,0.951,0.621c0.123,0.244,1.141,2.432,1.243,2.704
	c0.159,0.417,0.106,1.028-0.382,1.378l-0.088,0.061c-0.241,0.168-0.694,0.48-0.758,0.862c-0.029,0.185,0.033,0.378,0.191,0.592
	c0.788,1.063,3.305,4.183,3.76,4.606c0.354,0.332,0.805,0.379,1.112,0.121c0.318-0.268,0.459-0.427,0.461-0.428l0.033-0.032
	c0.027-0.022,0.275-0.219,0.68-0.219c0.293,0,0.59,0.101,0.885,0.3c0.764,0.516,2.484,1.668,2.484,1.668l0.029,0.021
	c0.221,0.189,0.539,0.733,0.166,1.44C19.064,19.59,17.869,21.107,16.635,21.107z M8.679,5.749c-0.279,0-0.967,0.118-1.367,0.403
	L7.184,6.243c-0.459,0.315-1.15,0.795-1.15,1.808c0,1.55,1.212,3.933,3.704,7.284c2.724,3.662,5.834,5.181,6.897,5.181
	c0.902,0,1.936-1.259,2.291-1.935c0.217-0.414,0.039-0.648-0.023-0.711c-0.197-0.134-1.752-1.172-2.467-1.654
	c-0.195-0.133-0.381-0.199-0.553-0.199c-0.156,0-0.26,0.056-0.295,0.078c-0.057,0.061-0.215,0.224-0.498,0.461
	c-0.527,0.443-1.329,0.391-1.896-0.141c-0.512-0.479-3.095-3.693-3.832-4.687c-0.255-0.343-0.354-0.694-0.298-1.04
	c0.103-0.628,0.69-1.033,1.005-1.252l0.077-0.055c0.281-0.201,0.223-0.565,0.176-0.688C10.235,8.465,9.23,6.3,9.102,6.044
	C8.998,5.837,8.916,5.749,8.679,5.749z"/>
</svg>
