<?xml version="1.0" encoding="utf-8"?>
<!-- Generator: Adobe Illustrator 16.0.0, SVG Export Plug-In . SVG Version: 6.00 Build 0)  -->
<!DOCTYPE svg PUBLIC "-//W3C//DTD SVG 1.1//EN" "http://www.w3.org/Graphics/SVG/1.1/DTD/svg11.dtd">
<svg version="1.1" id="Layer_1" xmlns="http://www.w3.org/2000/svg" xmlns:xlink="http://www.w3.org/1999/xlink" x="0px" y="0px"
	 width="50px" height="50px" viewBox="0 0 50 50" enable-background="new 0 0 50 50" xml:space="preserve">
<g>
	<polygon fill="#FFFFFF" points="13.853,26.546 15.752,26.546 15.752,36.824 17.548,36.824 17.548,26.546 19.483,26.546 
		19.483,24.86 13.853,24.86 	"/>
	<path fill="#FFFFFF" d="M29.045,27.802c-0.593,0-1.148,0.324-1.669,0.966V24.86h-1.615v11.964h1.615v-0.863
		c0.541,0.666,1.096,0.985,1.669,0.985c0.643,0,1.075-0.338,1.291-1.001c0.108-0.378,0.164-0.973,0.164-1.797V30.6
		c0-0.844-0.056-1.433-0.164-1.792C30.121,28.14,29.688,27.802,29.045,27.802z M28.884,34.275c0,0.805-0.235,1.202-0.703,1.202
		c-0.265,0-0.536-0.126-0.805-0.397v-5.432c0.269-0.267,0.54-0.394,0.805-0.394c0.468,0,0.703,0.413,0.703,1.217V34.275z"/>
	<path fill="#FFFFFF" d="M22.747,34.722c-0.358,0.507-0.696,0.756-1.021,0.756c-0.216,0-0.339-0.126-0.379-0.377
		c-0.014-0.053-0.014-0.251-0.014-0.628V27.91h-1.616v7.047c0,0.63,0.053,1.056,0.143,1.326c0.162,0.452,0.521,0.662,1.04,0.662
		c0.595,0,1.205-0.358,1.846-1.094v0.973h1.617V27.91h-1.617V34.722z"/>
	<path fill="#FFFFFF" d="M24.134,19.675c0.526,0,0.778-0.417,0.778-1.25v-3.79c0-0.834-0.252-1.25-0.778-1.25
		s-0.779,0.416-0.779,1.25v3.79C23.355,19.258,23.608,19.675,24.134,19.675z"/>
	<path fill="#FFFFFF" d="M25.223,0.822c-13.229,0-23.954,10.725-23.954,23.955c0,13.229,10.725,23.954,23.954,23.954
		c13.23,0,23.955-10.726,23.955-23.954C49.178,11.547,38.453,0.822,25.223,0.822z M27.887,12.026h1.629v6.632
		c0,0.383,0,0.582,0.019,0.635c0.036,0.253,0.165,0.382,0.384,0.382c0.327,0,0.669-0.253,1.031-0.764v-6.885h1.632v9.008h-1.632
		v-0.982c-0.65,0.746-1.271,1.106-1.865,1.106c-0.525,0-0.889-0.212-1.052-0.668c-0.09-0.273-0.146-0.705-0.146-1.341V12.026
		L27.887,12.026z M21.723,14.963c0-0.962,0.164-1.667,0.511-2.122c0.451-0.616,1.087-0.923,1.9-0.923
		c0.817,0,1.452,0.307,1.904,0.923c0.342,0.455,0.506,1.16,0.506,2.122v3.155c0,0.958-0.164,1.668-0.506,2.119
		c-0.452,0.615-1.087,0.921-1.904,0.921c-0.813,0-1.45-0.307-1.9-0.921c-0.348-0.451-0.511-1.162-0.511-2.119V14.963z M17.357,8.946
		l1.286,4.747l1.233-4.747h1.831l-2.178,7.193v4.896h-1.809v-4.896c-0.165-0.868-0.526-2.138-1.108-3.824
		c-0.381-1.122-0.778-2.248-1.161-3.369H17.357z M38.118,37.611c-0.327,1.422-1.489,2.47-2.889,2.626
		c-3.313,0.37-6.667,0.372-10.008,0.37c-3.339,0.002-6.694,0-10.008-0.37c-1.399-0.156-2.56-1.204-2.887-2.626
		c-0.467-2.024-0.467-4.235-0.467-6.318c0-2.084,0.005-4.293,0.471-6.317c0.328-1.422,1.49-2.47,2.889-2.625
		c3.313-0.371,6.669-0.373,10.008-0.371c3.34-0.002,6.693,0,10.007,0.371c1.401,0.156,2.563,1.204,2.891,2.625
		c0.465,2.024,0.462,4.233,0.462,6.317C38.587,33.376,38.584,35.587,38.118,37.611z"/>
	<path fill="#FFFFFF" d="M34.19,27.802c-0.826,0-1.468,0.304-1.936,0.913c-0.342,0.451-0.498,1.147-0.498,2.101v3.122
		c0,0.947,0.176,1.649,0.518,2.096c0.468,0.608,1.11,0.913,1.956,0.913c0.844,0,1.505-0.318,1.952-0.966
		c0.196-0.287,0.324-0.611,0.377-0.968c0.017-0.162,0.035-0.52,0.035-1.04v-0.236h-1.648c0,0.648-0.021,1.006-0.035,1.095
		c-0.092,0.431-0.325,0.647-0.721,0.647c-0.556,0-0.826-0.413-0.826-1.236v-1.581h3.23v-1.846c0-0.953-0.161-1.649-0.499-2.101
		C35.643,28.105,35.001,27.802,34.19,27.802z M34.979,31.315h-1.615v-0.823c0-0.824,0.271-1.237,0.812-1.237
		c0.534,0,0.804,0.413,0.804,1.237V31.315z"/>
</g>
</svg>
